<svg version="1.1" viewBox="0 0 24 24" xmlns="http://www.w3.org/2000/svg">
    <g fill="none">
        <path d="M0,0h24v24h-24Z"></path>
        <path stroke="currentColor" stroke-linecap="round" stroke-linejoin="round" stroke-width="1.5"
              d="M19,21h-8c-1.105,0 -2,-0.895 -2,-2v-8c0,-1.105 0.895,-2 2,-2h8c1.105,0 2,0.895 2,2v8c0,1.105 -0.895,2 -2,2Z"></path>
        <path stroke="currentColor" stroke-linecap="round" stroke-linejoin="round" stroke-width="1.5"
              d="M13,15h-8c-1.105,0 -2,-0.895 -2,-2v-8c0,-1.105 0.895,-2 2,-2h8c1.105,0 2,0.895 2,2v8c0,1.105 -0.895,2 -2,2Z"></path>
    </g>
</svg>